<?xml version="1.0" standalone="no"?>
<!DOCTYPE svg PUBLIC "-//W3C//DTD SVG 20010904//EN"
 "http://www.w3.org/TR/2001/REC-SVG-20010904/DTD/svg10.dtd">
<svg version="1.0" xmlns="http://www.w3.org/2000/svg"
 width="704.000000pt" height="704.000000pt" viewBox="0 0 704.000000 704.000000"
 preserveAspectRatio="xMidYMid meet">
<metadata>
Created by potrace 1.11, written by Peter Selinger 2001-2013
</metadata>
<g transform="translate(0.000000,704.000000) scale(0.100000,-0.100000)"
fill="#000000" stroke="none">
<path d="M54 6062 c-43 -36 -57 -69 -49 -117 7 -47 3 -44 159 -190 24 -22 78
-71 121 -110 42 -38 92 -84 109 -100 17 -17 80 -75 141 -130 60 -55 126 -116
147 -135 20 -19 71 -66 114 -105 42 -38 89 -81 104 -95 15 -14 71 -65 125
-115 54 -49 110 -101 125 -115 15 -14 71 -65 125 -115 55 -49 106 -97 115
-105 9 -8 63 -58 120 -110 57 -52 131 -120 165 -151 33 -31 72 -67 86 -80 49
-44 212 -194 250 -229 20 -19 74 -69 120 -110 45 -41 99 -91 120 -110 20 -19
74 -69 120 -110 125 -113 157 -148 164 -181 15 -67 -7 -99 -176 -250 -41 -37
-90 -82 -110 -100 -20 -19 -78 -72 -129 -119 -51 -47 -110 -101 -131 -120 -20
-19 -74 -69 -119 -110 -46 -41 -115 -105 -154 -141 -39 -36 -83 -77 -97 -90
-82 -74 -196 -178 -223 -204 -18 -16 -69 -64 -115 -105 -45 -41 -99 -91 -120
-110 -44 -41 -212 -196 -256 -235 -28 -26 -178 -164 -266 -245 -21 -19 -75
-69 -120 -110 -45 -41 -94 -86 -109 -100 -15 -14 -64 -59 -110 -100 -45 -41
-101 -93 -124 -115 -24 -22 -65 -60 -92 -85 -66 -61 -75 -74 -81 -114 -6 -50
18 -100 60 -119 32 -15 103 -17 755 -17 422 0 730 4 744 9 13 5 44 29 69 53
26 24 79 72 118 108 40 36 91 83 114 105 36 34 157 145 267 245 82 74 229 210
264 243 21 21 71 66 109 100 39 34 82 73 97 87 35 34 123 115 260 240 63 58
124 114 136 125 11 11 68 63 125 115 57 52 131 120 163 150 33 30 67 62 76 70
57 52 150 138 237 218 55 51 111 101 123 112 19 17 64 58 256 235 17 17 76 71
130 120 168 153 174 160 181 198 12 74 2 87 -190 261 -48 44 -103 93 -121 110
-18 17 -74 69 -126 116 -51 47 -109 101 -130 120 -20 19 -74 69 -120 110 -45
41 -100 91 -120 110 -21 19 -82 76 -136 125 -54 50 -130 119 -169 155 -38 36
-85 79 -104 95 -18 17 -55 50 -81 75 -26 25 -89 83 -141 130 -51 47 -104 96
-118 108 -14 13 -66 61 -115 105 -49 45 -101 93 -116 107 -15 14 -69 63 -120
110 -51 47 -110 101 -130 120 -21 19 -73 67 -115 105 -42 39 -100 92 -128 119
-29 26 -72 66 -97 88 -49 44 -183 167 -270 248 -30 29 -65 56 -78 61 -13 5
-338 9 -755 9 -680 -1 -733 -2 -753 -18z"/>
<path d="M5355 6047 c-22 -17 -54 -45 -71 -62 -18 -16 -71 -66 -120 -110 -48
-44 -100 -91 -114 -105 -15 -14 -66 -61 -114 -105 -49 -44 -105 -96 -126 -115
-95 -88 -154 -142 -250 -230 -57 -52 -119 -109 -137 -126 -18 -17 -66 -60
-105 -96 -40 -36 -87 -79 -104 -94 -29 -28 -105 -98 -207 -192 -56 -52 -73
-100 -55 -154 8 -21 134 -147 238 -238 19 -17 181 -165 240 -220 244 -226 282
-259 303 -261 9 -1 23 -2 30 -3 6 -1 25 4 41 12 27 13 49 32 149 125 22 21 74
68 115 105 40 37 93 85 116 107 73 68 247 228 268 246 11 10 65 60 121 112 56
52 114 105 128 118 15 13 67 61 115 105 49 45 103 94 119 109 17 15 73 67 126
116 53 49 106 98 119 109 12 11 70 63 128 117 58 54 140 129 182 167 41 38 89
82 105 98 17 15 46 42 66 60 19 18 75 69 123 113 48 44 98 90 111 101 59 54
68 142 19 191 -31 31 -75 33 -793 33 l-727 -1 -39 -32z"/>
<path d="M4725 3100 c-11 -5 -34 -21 -51 -36 -54 -49 -194 -177 -227 -209 -50
-46 -229 -211 -253 -232 -137 -118 -235 -219 -243 -249 -20 -73 -6 -92 249
-324 15 -14 64 -58 108 -99 45 -40 98 -90 120 -110 49 -45 223 -205 280 -257
24 -21 62 -57 86 -79 23 -22 79 -74 125 -115 46 -41 102 -93 126 -115 23 -22
77 -71 119 -110 43 -38 101 -92 129 -119 101 -95 16 -86 840 -86 654 0 732 2
756 16 37 22 63 73 57 110 -2 16 -5 34 -5 41 -1 13 -23 35 -157 158 -54 50
-109 101 -123 114 -14 13 -64 58 -110 100 -46 42 -96 87 -110 101 -14 14 -80
74 -146 135 -66 60 -143 131 -172 158 -28 27 -65 61 -83 75 -17 14 -50 44 -73
66 -24 23 -74 70 -112 105 -39 35 -95 87 -125 115 -31 28 -98 89 -149 136 -51
47 -107 99 -125 115 -34 32 -224 206 -262 240 -96 87 -227 208 -266 246 -27
26 -48 45 -48 44 0 -2 -17 13 -37 31 -20 19 -44 34 -52 35 -9 0 -23 2 -31 3
-8 2 -24 0 -35 -4z"/>
</g>
</svg>
